<svg xmlns="http://www.w3.org/2000/svg" width="480" height="336" fill="none"><path fill="#BDBDBD" d="M395.085 128.077a3.35 3.35 0 0 0-1.331-2.179 3.336 3.336 0 0 0-5.262 3.211c.483 3.106 1.11 12.835-2.269 16.746a4.47 4.47 0 0 1-2.708 1.558l.311-18.526a4.82 4.82 0 0 0-1.426-3.403 4.83 4.83 0 0 0-5.26-1.024 4.82 4.82 0 0 0-2.958 4.466l.871 35.161a4.52 4.52 0 0 1-2.819-1.57c-3.329-3.916-2.747-13.645-2.27-16.751a3.336 3.336 0 0 0-6.592-1.026c-.238 1.525-2.164 15.148 3.79 22.104a11.28 11.28 0 0 0 8.057 3.96l.383 15.304h7.275l.527-31.972a11.278 11.278 0 0 0 7.891-3.949c5.931-6.956 4-20.579 3.79-22.11M84.344 157.885a2.123 2.123 0 0 0-3.817-.926 2.13 2.13 0 0 0-.384 1.581c.305 1.98.694 8.181-1.448 10.677-.437.527-1.05.88-1.726.993l.2-11.809a3.07 3.07 0 0 0-3.074-3.073 3.076 3.076 0 0 0-3.074 3.073l.555 22.415a2.84 2.84 0 0 1-1.798-1.004c-2.142-2.491-1.754-8.692-1.448-10.672a2.124 2.124 0 0 0-1.77-2.43 2.13 2.13 0 0 0-2.43 1.77c-.15.976-1.383 9.662 2.413 14.094a7.2 7.2 0 0 0 5.138 2.524l.244 9.757h4.64l.338-20.385a7.184 7.184 0 0 0 5.027-2.512c3.768-4.416 2.541-13.097 2.414-14.073"/><path fill="url(#a)" d="M239.997 335.999c132.547 0 239.998-38.026 239.998-84.933s-107.451-84.933-239.998-84.933S0 204.159 0 251.066s107.45 84.933 239.997 84.933"/><path fill="#BDBDBD" d="M247.927 112.748a1.272 1.272 0 0 0-2.109 1.42c.666.993 2.447 4.255 1.92 6.146a1.72 1.72 0 0 1-.683.976l-2.902-6.473a1.841 1.841 0 0 0-3.329 1.57l5.976 12.003a1.7 1.7 0 0 1-1.226-.088c-1.792-.81-3.152-4.266-3.49-5.42a1.274 1.274 0 0 0-2.335-.257 1.27 1.27 0 0 0-.107.967c.167.555 1.698 5.58 4.878 7.023a4.33 4.33 0 0 0 3.423.066l2.597 5.225 2.514-1.176-4.994-11.127a4.29 4.29 0 0 0 2.092-2.634c.971-3.34-1.892-7.733-2.225-8.221M200.356 143.075a1.554 1.554 0 1 1-2.418-1.286 1.557 1.557 0 0 1 2.418 1.286M272.453 115.574a1.179 1.179 0 0 1-2.016.843 1.18 1.18 0 0 1-.258-1.288 1.18 1.18 0 0 1 1.092-.731 1.18 1.18 0 0 1 1.182 1.176"/><path fill="#CCFFE7" d="M239.032 58.297 87.607 222.617l219.283 2.135-9.816-146.891z" opacity=".6"/><path fill="#00B562" d="M301.862 99.753a3.94 3.94 0 0 0 3.717-.672 3.92 3.92 0 0 0 1.433-3.494l-2.148-18.626a3.921 3.921 0 0 0-6.82-1.793 3.92 3.92 0 0 0-.948 2.692l2.125 18.654a3.933 3.933 0 0 0 2.641 3.24"/><path fill="#00B562" d="M295.992 93.426a7.972 7.972 0 0 0 2.295 8.569 7.991 7.991 0 0 0 8.798 1.158 7.98 7.98 0 0 0-.972-14.72 7.987 7.987 0 0 0-10.121 4.992M221.958 72.818a3.92 3.92 0 0 1-2.556-2.782 3.93 3.93 0 0 1 .985-3.647l12.99-13.523a3.924 3.924 0 0 1 6.707 2.65 3.93 3.93 0 0 1-1.047 2.78L226.042 71.82a3.92 3.92 0 0 1-4.084.998"/><path fill="#00B562" d="M230.47 71.338a7.98 7.98 0 0 1-7.035 5.409 7.99 7.99 0 0 1-7.69-4.43 7.982 7.982 0 0 1 9.731-11.091 7.984 7.984 0 0 1 4.994 10.112"/><path fill="#99FFCF" d="M270.466 64.615A479 479 0 0 1 223.95 46.37c7.829 12.542 22.601 23.896 41.384 30.225 18.622 6.273 37.105 6.246 50.895 1.11-13.556-3.08-29.243-7.522-45.763-13.091"/><path fill="#00B562" d="M360.262 79.23c2.617-7.759-33.846-27.052-81.443-43.092s-88.303-22.752-90.92-14.992 33.847 27.052 81.443 43.092c47.597 16.04 88.304 22.752 90.92 14.993"/><path fill="#fff" d="M270.416 61.076c-44.313-14.938-78.978-32.688-81.425-41.33a2.98 2.98 0 0 0-1.082 1.398c-2.619 7.766 33.849 27.052 81.442 43.093s88.3 22.742 90.914 14.977a2.9 2.9 0 0 0 0-1.764c-7.203 5.408-45.535-1.459-89.849-16.374" opacity=".2"/><path fill="#FFC400" d="M277.364 44.02a269.7 269.7 0 0 0 43.581 10.416 46.2 46.2 0 0 0-5.73-31.747A46.24 46.24 0 0 0 290.109 2.42a46.26 46.26 0 0 0-32.254 1.083 46.24 46.24 0 0 0-23.69 21.907s21.086 11.165 43.199 18.61"/><defs><linearGradient id="a" x1="239.997" x2="239.997" y1="127.643" y2="261.012" gradientUnits="userSpaceOnUse"><stop stop-color="#E5E5E5"/><stop offset=".48" stop-color="#F4F4F4"/><stop offset="1" stop-color="#fff"/></linearGradient></defs></svg>